#!OML:ASF X:\für Bonn\!DataBase\2005_08_12_Daniel\c3d\Daniel.ASF
:FULLY-SPECIFIED
:DEGREES
170
root 5.50344 16.6864 0.310539 -736.646 -60.7824 725.81
lowerback 13.2145 -10.2179 -9.62305
upperback 5.84653 -14.9278 -3.1534
thorax 0.540266 -7.72386 3.51206
lowerneck 18.2588 13.2838 2.03628
upperneck 15.0542 17.0631 -5.21546
head 2.73543 8.10744 -2.53833
rclavicle 1.07046e-013 -1.59028e-015
rhumerus -40.082 -3.43162 -83.7211
rradius 45.4093
rwrist 15.3216
rhand -28.9534 19.5924
rfingers 7.12502
rthumb -2.30666 -10.3749
lclavicle 1.07046e-013 -1.59028e-015
lhumerus -27.9507 14.203 62.7035
lradius 127.71
lwrist 205.443
lhand -12.956 16.689
lfingers 7.12502
lthumb 13.1356 46.2553
rfemur -22.2559 -13.4701 9.85995
rtibia 52.192
rfoot -14.0029 -7.5652
rtoes -7.6432
lfemur 4.39649 -12.9778 -11.9042
ltibia 48.5541
lfoot -20.6196 -16.8483
ltoes -18.0954
171
root 5.60412 16.6748 0.354497 -736.66 -60.5792 725.944
lowerback 13.2624 -10.2993 -9.79776
upperback 5.77902 -15.0621 -3.1154
thorax 0.51612 -7.7901 3.65655
lowerneck 18.151 13.198 2.06305
upperneck 14.5388 16.9859 -5.36217
head 2.57948 8.09431 -2.59843
rclavicle -1.29657e-013 2.38542e-015
rhumerus -39.7833 -3.80462 -83.8501
rradius 46.1785
rwrist 14.4233
rhand -29.1292 19.4225
rfingers 7.12502
rthumb -2.47648 -10.5429
lclavicle -1.29657e-013 2.38542e-015
lhumerus -27.938 14.0404 63.3156
lradius 127.209
lwrist 204.977
lhand -13.1206 16.2766
lfingers 7.12502
lthumb 12.977 45.853
rfemur -22.6131 -13.7943 9.43626
rtibia 52.1814
rfoot -13.6917 -7.49306
rtoes -7.8851
lfemur 4.90613 -13.229 -12.0735
ltibia 47.2463
lfoot -21.9236 -17.7924
ltoes -18.1725
172
root 5.70835 16.6638 0.399878 -736.637 -60.4102 726.034
lowerback 13.306 -10.3569 -9.90756
upperback 5.72277 -15.1568 -3.08929
thorax 0.481442 -7.83506 3.75479
lowerneck 17.9732 13.0865 2.14604
upperneck 14.0753 16.8881 -5.5043
head 2.45702 8.07186 -2.6587
rclavicle -1.41137e-014 1.66979e-014
rhumerus -39.4034 -4.26024 -84.0202
rradius 46.7472
rwrist 13.63
rhand -29.3185 19.2937
rfingers 7.12502
rthumb -2.6593 -10.6695
lclavicle -1.41137e-014 1.66979e-014
lhumerus -27.8748 13.8369 63.9638
lradius 126.695
lwrist 204.467
lhand -13.2028 15.7532
lfingers 7.12502
lthumb 12.8977 45.3347
rfemur -22.924 -14.0508 9.04747
rtibia 52.095
rfoot -13.3776 -7.46484
rtoes -8.12027
lfemur 5.35645 -13.5467 -12.3003
ltibia 46.0461
lfoot -23.1753 -18.5231
ltoes -17.8317
173
root 5.8152 16.6533 0.445666 -736.653 -60.2873 726.181
lowerback 13.3418 -10.3835 -10.0278
upperback 5.65864 -15.2117 -3.06325
thorax 0.440303 -7.85961 3.85543
lowerneck 17.7243 12.9709 2.22184
upperneck 13.6449 16.7849 -5.60723
head 2.35269 8.04501 -2.6988
rclavicle 1.47598e-014 -2.70347e-014
rhumerus -38.9571 -4.67792 -84.2071
rradius 47.1394
rwrist 12.9176
rhand -29.5323 19.1942
rfingers 7.12502
rthumb -2.86578 -10.7663
lclavicle 1.47598e-014 -2.70347e-014
lhumerus -27.846 13.6074 64.643
lradius 126.237
lwrist 204.028
lhand -13.2827 15.2013
lfingers 7.12502
lthumb 12.8207 44.7876
rfemur -23.241 -14.1982 8.66447
rtibia 51.9466
rfoot -13.0438 -7.50156
rtoes -8.44768
lfemur 5.75575 -13.9068 -12.6319
ltibia 44.9425
lfoot -24.3175 -19.1304
ltoes -17.1004
174
root 5.92514 16.6438 0.492144 -736.688 -60.1898 726.36
lowerback 13.3542 -10.3837 -10.129
upperback 5.61247 -15.2266 -3.05073
thorax 0.416615 -7.86531 3.92457
lowerneck 17.3392 12.8461 2.30098
upperneck 13.3031 16.6739 -5.6525
head 2.29491 8.01069 -2.70767
rclavicle -1.97145e-013 1.90833e-014
rhumerus -38.5013 -5.07893 -84.4336
rradius 47.5011
rwrist 12.3596
rhand -29.7841 19.0573
rfingers 7.12502
rthumb -3.10894 -10.8997
lclavicle -1.97145e-013 1.90833e-014
lhumerus -27.7869 13.3349 65.3688
lradius 125.781
lwrist 203.632
lhand -13.2823 14.73
lfingers 7.12502
lthumb 12.821 44.3162
rfemur -23.5414 -14.2567 8.28212
rtibia 51.7298
rfoot -12.6868 -7.60662
rtoes -8.70264
lfemur 6.0978 -14.2536 -13.0467
ltibia 43.955
lfoot -25.4196 -19.6113
ltoes -16.1866
175
root 6.03803 16.6326 0.538995 -736.742 -60.1393 726.547
lowerback 13.3806 -10.3491 -10.1931
upperback 5.56234 -15.1934 -3.04213
thorax 0.363748 -7.84464 3.97438
lowerneck 16.9177 12.7197 2.32747
upperneck 13.0015 16.5475 -5.60714
head 2.24259 7.96459 -2.67473
rclavicle 4.99446e-014 1.11319e-014
rhumerus -38.1169 -5.42188 -84.6652
rradius 47.8942
rwrist 11.9156
rhand -29.9517 18.8207
rfingers 7.12502
rthumb -3.27083 -11.1339
lclavicle 4.99446e-014 1.11319e-014
lhumerus -27.7846 13.0375 66.1483
lradius 125.413
lwrist 203.237
lhand -13.2803 14.3305
lfingers 7.12502
lthumb 12.823 43.9167
rfemur -23.8083 -14.2094 7.92449
rtibia 51.4436
rfoot -12.3451 -7.78266
rtoes -9.12331
lfemur 6.4112 -14.517 -13.5297
ltibia 43.1064
lfoot -26.5581 -19.8057
ltoes -15.4438
176
root 6.15432 16.6191 0.585296 -736.792 -60.1185 726.76
lowerback 13.3724 -10.2917 -10.2408
upperback 5.51434 -15.1239 -3.03871
thorax 0.320652 -7.80604 4.00218
lowerneck 16.5154 12.5688 2.35103
upperneck 12.6621 16.3863 -5.55632
head 2.17214 7.9023 -2.64211
rclavicle 3.32964e-014 2.46493e-014
rhumerus -37.7273 -5.70661 -84.9203
rradius 48.2402
rwrist 11.655
rhand -30.1169 18.527
rfingers 7.12502
rthumb -3.43035 -11.4252
lclavicle 3.32964e-014 2.46493e-014
lhumerus -27.8388 12.7118 66.9276
lradius 125.175
lwrist 202.86
lhand -13.2423 13.9949
lfingers 7.12502
lthumb 12.8597 43.5788
rfemur -24.0892 -14.043 7.5815
rtibia 51.0846
rfoot -12.0258 -8.04468
rtoes -9.61107
lfemur 6.63337 -14.7173 -14.0867
ltibia 42.4114
lfoot -27.8084 -19.6358
ltoes -15.1209
177
root 6.27309 16.6036 0.631587 -736.887 -60.1377 727.019
lowerback 13.374 -10.2042 -10.2738
upperback 5.46341 -15.0152 -3.05236
thorax 0.255063 -7.74607 4.00734
lowerneck 16.1043 12.4085 2.3863
upperneck 12.3439 16.2124 -5.4835
head 2.1096 7.83316 -2.60304
rclavicle -9.93923e-015 -7.95139e-015
rhumerus -37.3727 -5.94744 -85.1801
rradius 48.5599
rwrist 11.555
rhand -30.1949 18.2174
rfingers 7.12502
rthumb -3.50571 -11.7336
lclavicle -9.93923e-015 -7.95139e-015
lhumerus -27.9534 12.3557 67.7418
lradius 124.971
lwrist 202.501
lhand -13.2349 13.9009
lfingers 7.12502
lthumb 12.8667 43.4843
rfemur -24.3431 -13.7597 7.23507
rtibia 50.6463
rfoot -11.6874 -8.38305
rtoes -10.2003
lfemur 6.80804 -14.8605 -14.727
ltibia 41.8531
lfoot -29.0905 -19.1323
ltoes -15.0765
178
root 6.39473 16.5918 0.679225 -737.026 -60.193 727.331
lowerback 13.3632 -10.0952 -10.2989
upperback 5.4201 -14.8756 -3.06638
thorax 0.197739 -7.67146 4.00319
lowerneck 15.6976 12.2431 2.37607
upperneck 11.9971 16.0218 -5.38566
head 2.03032 7.7545 -2.55023
rclavicle 5.46161e-014 1.59028e-015
rhumerus -37.0156 -6.03531 -85.4327
rradius 48.8611
rwrist 11.5057
rhand -30.21 17.8801
rfingers 7.12502
rthumb -3.52028 -12.0706
lclavicle 5.46161e-014 1.59028e-015
lhumerus -28.0388 11.9756 68.6017
lradius 124.707
lwrist 202.165
lhand -13.2275 14.0287
lfingers 7.12502
lthumb 12.8739 43.6117
rfemur -24.5631 -13.3391 6.87663
rtibia 50.1254
rfoot -11.3867 -8.81584
rtoes -10.8455
lfemur 6.937 -14.9551 -15.44
ltibia 41.3957
lfoot -30.3332 -18.319
ltoes -15.3051
179
root 6.51883 16.586 0.729653 -737.155 -60.3073 727.634
lowerback 13.3403 -9.96205 -10.2468
upperback 5.37958 -14.694 -3.09572
thorax 0.120049 -7.5735 3.94288
lowerneck 15.3468 12.057 2.38884
upperneck 11.6131 15.8043 -5.2939
head 1.93197 7.66445 -2.50821
rclavicle 7.20097e-014 -1.90833e-014
rhumerus -36.7326 -5.96655 -85.6935
rradius 49.1763
rwrist 11.4437
rhand -30.2319 17.5715
rfingers 7.12502
rthumb -3.5414 -12.3788
lclavicle 7.20097e-014 -1.90833e-014
lhumerus -28.1264 11.5657 69.5018
lradius 124.417
lwrist 201.805
lhand -13.2825 14.2886
lfingers 7.12502
lthumb 12.8209 43.8749
rfemur -24.7514 -12.7925 6.53154
rtibia 49.5166
rfoot -11.0291 -9.30756
rtoes -11.4033
lfemur 7.03387 -14.9741 -16.1714
ltibia 40.9996
lfoot -31.5179 -17.2398
ltoes -15.8354
180
root 6.64383 16.5867 0.781812 -737.346 -60.467 728.004
lowerback 13.3225 -9.79603 -10.2275
upperback 5.32895 -14.4732 -3.09115
thorax 0.0415319 -7.4568 3.93126
lowerneck 15.0808 11.8657 2.30314
upperneck 11.1137 15.5608 -5.20048
head 1.77279 7.56119 -2.45991
rclavicle 7.70291e-014 -6.36111e-015
rhumerus -36.5186 -5.72402 -85.8743
rradius 49.5441
rwrist 11.3214
rhand -30.1782 17.2763
rfingers 7.12502
rthumb -3.48951 -12.6749
lclavicle 7.70291e-014 -6.36111e-015
lhumerus -28.2381 11.1707 70.5071
lradius 124.124
lwrist 201.417
lhand -13.3297 14.6265
lfingers 7.12502
lthumb 12.7753 44.2157
rfemur -24.9127 -12.1765 6.16408
rtibia 48.8378
rfoot -10.5897 -9.85916
rtoes -11.8915
lfemur 7.0867 -14.9118 -16.9437
ltibia 40.6303
lfoot -32.5658 -16.0043
ltoes -16.6652
181
root 6.77064 16.5948 0.834572 -737.524 -60.6707 728.365
lowerback 13.2867 -9.62846 -10.1206
upperback 5.28616 -14.2393 -3.14509
thorax -0.0578503 -7.33064 3.81467
lowerneck 14.9423 11.6637 2.29189
upperneck 10.523 15.308 -5.10324
head 1.57038 7.4587 -2.43377
rclavicle -8.59247e-014 4.45278e-014
rhumerus -36.4008 -5.397 -86.1295
rradius 49.941
rwrist 11.1794
rhand -30.1117 17.0294
rfingers 7.12502
rthumb -3.42535 -12.9228
lclavicle -8.59247e-014 4.45278e-014
lhumerus -28.3752 10.7487 71.4052
lradius 123.838
lwrist 201.133
lhand -13.4361 14.9617
lfingers 7.12502
lthumb 12.6728 44.5572
rfemur -25.0637 -11.4641 5.81136
rtibia 48.1053
rfoot -10.0873 -10.467
rtoes -12.1675
lfemur 7.067 -14.8066 -17.7096
ltibia 40.2698
lfoot -33.3997 -14.6914
ltoes -17.5005
